# Wavefront OBJ file automatically generated by Tiled2Unity

# Vertices (Count = 286)
v -352 -64 0
v -384 -64 0
v -384 -32 0
v -352 -32 0
v -416 -64 0
v -416 -32 0
v -448 -64 0
v -448 -32 0
v -480 -64 0
v -480 -32 0
v -736 -64 0
v -768 -64 0
v -768 -32 0
v -736 -32 0
v -800 -64 0
v -800 -32 0
v -832 -64 0
v -832 -32 0
v -1280 -64 0
v -1312 -64 0
v -1312 -32 0
v -1280 -32 0
v -1344 -64 0
v -1344 -32 0
v -1376 -64 0
v -1376 -32 0
v -1408 -64 0
v -1408 -32 0
v -1792 -64 0
v -1824 -64 0
v -1824 -32 0
v -1792 -32 0
v -1856 -64 0
v -1856 -32 0
v -1888 -64 0
v -1888 -32 0
v -1920 -64 0
v -1920 -32 0
v -2368 -64 0
v -2400 -64 0
v -2400 -32 0
v -2368 -32 0
v -2432 -64 0
v -2432 -32 0
v -2464 -64 0
v -2464 -32 0
v -2496 -64 0
v -2496 -32 0
v -2752 -64 0
v -2784 -64 0
v -2784 -32 0
v -2752 -32 0
v -2816 -64 0
v -2816 -32 0
v -2848 -64 0
v -2848 -32 0
v -2880 -64 0
v -2880 -32 0
v -3232 -64 0
v -3264 -64 0
v -3264 -32 0
v -3232 -32 0
v -3296 -64 0
v -3296 -32 0
v -3328 -64 0
v -3328 -32 0
v -3360 -64 0
v -3360 -32 0
v -3744 -64 0
v -3776 -64 0
v -3776 -32 0
v -3744 -32 0
v -3808 -64 0
v -3808 -32 0
v -3840 -64 0
v -3840 -32 0
v -3872 -64 0
v -3872 -32 0
v -544 -128 0
v -576 -128 0
v -576 -96 0
v -544 -96 0
v -1504 -128 0
v -1536 -128 0
v -1536 -96 0
v -1504 -96 0
v -1984 -128 0
v -2016 -128 0
v -2016 -96 0
v -1984 -96 0
v -2944 -128 0
v -2976 -128 0
v -2976 -96 0
v -2944 -96 0
v -3424 -128 0
v -3456 -128 0
v -3456 -96 0
v -3424 -96 0
v -3936 -128 0
v -3968 -128 0
v -3968 -96 0
v -3936 -96 0
v -4096 -160 0
v -4128 -160 0
v -4128 -128 0
v -4096 -128 0
v -4192 -160 0
v -4224 -160 0
v -4224 -128 0
v -4192 -128 0
v -1568 -192 0
v -1600 -192 0
v -1600 -160 0
v -1568 -160 0
v -1632 -192 0
v -1632 -160 0
v -1664 -192 0
v -1664 -160 0
v -3008 -192 0
v -3040 -192 0
v -3040 -160 0
v -3008 -160 0
v -3072 -192 0
v -3072 -160 0
v -3104 -192 0
v -3104 -160 0
v -3520 -192 0
v -3552 -192 0
v -3552 -160 0
v -3520 -160 0
v -3584 -192 0
v -3584 -160 0
v -4064 -192 0
v -4096 -192 0
v -4064 -160 0
v -4224 -192 0
v -4256 -192 0
v -4256 -160 0
v -4032 -224 0
v -4064 -224 0
v -4032 -192 0
v -4256 -224 0
v -4288 -224 0
v -4288 -192 0
v -576 -256 0
v -608 -256 0
v -608 -224 0
v -576 -224 0
v -1088 -256 0
v -1120 -256 0
v -1120 -224 0
v -1088 -224 0
v -2016 -256 0
v -2048 -256 0
v -2048 -224 0
v -2016 -224 0
v -3168 -256 0
v -3200 -256 0
v -3200 -224 0
v -3168 -224 0
v -3712 -256 0
v -3744 -256 0
v -3744 -224 0
v -3712 -224 0
v -4000 -256 0
v -4032 -256 0
v -4000 -224 0
v -4288 -256 0
v -4320 -256 0
v -4320 -224 0
v -512 -448 0
v -544 -448 0
v -544 -416 0
v -512 -416 0
v -576 -448 0
v -576 -416 0
v -608 -448 0
v -608 -416 0
v -1312 -448 0
v -1344 -448 0
v -1344 -416 0
v -1312 -416 0
v -1376 -448 0
v -1376 -416 0
v -1408 -448 0
v -1408 -416 0
v -1952 -448 0
v -1984 -448 0
v -1984 -416 0
v -1952 -416 0
v -2016 -448 0
v -2016 -416 0
v -2048 -448 0
v -2048 -416 0
v -3104 -448 0
v -3136 -448 0
v -3136 -416 0
v -3104 -416 0
v -3168 -448 0
v -3168 -416 0
v -3200 -448 0
v -3200 -416 0
v -928 -512 0
v -960 -512 0
v -960 -480 0
v -928 -480 0
v -992 -512 0
v -992 -480 0
v -1024 -512 0
v -1024 -480 0
v -1632 -512 0
v -1664 -512 0
v -1664 -480 0
v -1632 -480 0
v -1696 -512 0
v -1696 -480 0
v -1728 -512 0
v -1728 -480 0
v -2304 -512 0
v -2336 -512 0
v -2336 -480 0
v -2304 -480 0
v -2368 -512 0
v -2368 -480 0
v -2400 -512 0
v -2400 -480 0
v -2816 -512 0
v -2848 -512 0
v -2848 -480 0
v -2816 -480 0
v -2880 -512 0
v -2880 -480 0
v -2912 -512 0
v -2912 -480 0
v -3488 -512 0
v -3520 -512 0
v -3520 -480 0
v -3488 -480 0
v -3552 -512 0
v -3552 -480 0
v -3584 -512 0
v -3584 -480 0
v -4000 -512 0
v -4032 -512 0
v -4032 -480 0
v -4000 -480 0
v -4064 -512 0
v -4064 -480 0
v -4096 -512 0
v -4096 -480 0
v -4256 -512 0
v -4288 -512 0
v -4288 -480 0
v -4256 -480 0
v -4320 -512 0
v -4320 -480 0
v -4352 -512 0
v -4352 -480 0
v -1184 -576 0
v -1216 -576 0
v -1216 -544 0
v -1184 -544 0
v -1824 -576 0
v -1856 -576 0
v -1856 -544 0
v -1824 -544 0
v -2592 -576 0
v -2624 -576 0
v -2624 -544 0
v -2592 -544 0
v -2976 -576 0
v -3008 -576 0
v -3008 -544 0
v -2976 -544 0
v -3712 -576 0
v -3744 -576 0
v -3744 -544 0
v -3712 -544 0
v -4128 -576 0
v -4160 -576 0
v -4160 -544 0
v -4128 -544 0
v -4448 -576 0
v -4480 -576 0
v -4480 -544 0
v -4448 -544 0

# Texture Coorindates (Count = 8)
vt 0.2501221 0.2501221
vt 0.3748779 0.2501221
vt 0.3748779 0.4998779
vt 0.2501221 0.4998779
vt 0.0001220703 0.5001221
vt 0.1248779 0.5001221
vt 0.1248779 0.7498779
vt 0.0001220703 0.7498779

# Normal
vn 0 0 -1

# Groups (Count = 1)
g mesh_[07]_[02]
f  1/1/1  2/2/1  3/3/1  4/4/1 
f  2/1/1  5/2/1  6/3/1  3/4/1 
f  5/1/1  7/2/1  8/3/1  6/4/1 
f  7/1/1  9/2/1  10/3/1  8/4/1 
f  11/1/1  12/2/1  13/3/1  14/4/1 
f  12/1/1  15/2/1  16/3/1  13/4/1 
f  15/1/1  17/2/1  18/3/1  16/4/1 
f  19/1/1  20/2/1  21/3/1  22/4/1 
f  20/1/1  23/2/1  24/3/1  21/4/1 
f  23/1/1  25/2/1  26/3/1  24/4/1 
f  25/1/1  27/2/1  28/3/1  26/4/1 
f  29/1/1  30/2/1  31/3/1  32/4/1 
f  30/1/1  33/2/1  34/3/1  31/4/1 
f  33/1/1  35/2/1  36/3/1  34/4/1 
f  35/1/1  37/2/1  38/3/1  36/4/1 
f  39/1/1  40/2/1  41/3/1  42/4/1 
f  40/1/1  43/2/1  44/3/1  41/4/1 
f  43/1/1  45/2/1  46/3/1  44/4/1 
f  45/1/1  47/2/1  48/3/1  46/4/1 
f  49/1/1  50/2/1  51/3/1  52/4/1 
f  50/1/1  53/2/1  54/3/1  51/4/1 
f  53/1/1  55/2/1  56/3/1  54/4/1 
f  55/1/1  57/2/1  58/3/1  56/4/1 
f  59/1/1  60/2/1  61/3/1  62/4/1 
f  60/1/1  63/2/1  64/3/1  61/4/1 
f  63/1/1  65/2/1  66/3/1  64/4/1 
f  65/1/1  67/2/1  68/3/1  66/4/1 
f  69/1/1  70/2/1  71/3/1  72/4/1 
f  70/1/1  73/2/1  74/3/1  71/4/1 
f  73/1/1  75/2/1  76/3/1  74/4/1 
f  75/1/1  77/2/1  78/3/1  76/4/1 
f  79/5/1  80/6/1  81/7/1  82/8/1 
f  83/5/1  84/6/1  85/7/1  86/8/1 
f  87/5/1  88/6/1  89/7/1  90/8/1 
f  91/5/1  92/6/1  93/7/1  94/8/1 
f  95/5/1  96/6/1  97/7/1  98/8/1 
f  99/5/1  100/6/1  101/7/1  102/8/1 
f  103/1/1  104/2/1  105/3/1  106/4/1 
f  107/1/1  108/2/1  109/3/1  110/4/1 
f  111/1/1  112/2/1  113/3/1  114/4/1 
f  112/1/1  115/2/1  116/3/1  113/4/1 
f  115/1/1  117/2/1  118/3/1  116/4/1 
f  119/1/1  120/2/1  121/3/1  122/4/1 
f  120/1/1  123/2/1  124/3/1  121/4/1 
f  123/1/1  125/2/1  126/3/1  124/4/1 
f  127/1/1  128/2/1  129/3/1  130/4/1 
f  128/1/1  131/2/1  132/3/1  129/4/1 
f  133/1/1  134/2/1  103/3/1  135/4/1 
f  136/1/1  137/2/1  138/3/1  108/4/1 
f  139/1/1  140/2/1  133/3/1  141/4/1 
f  142/1/1  143/2/1  144/3/1  137/4/1 
f  145/5/1  146/6/1  147/7/1  148/8/1 
f  149/5/1  150/6/1  151/7/1  152/8/1 
f  153/5/1  154/6/1  155/7/1  156/8/1 
f  157/5/1  158/6/1  159/7/1  160/8/1 
f  161/5/1  162/6/1  163/7/1  164/8/1 
f  165/1/1  166/2/1  139/3/1  167/4/1 
f  168/5/1  169/6/1  170/7/1  143/8/1 
f  171/1/1  172/2/1  173/3/1  174/4/1 
f  172/1/1  175/2/1  176/3/1  173/4/1 
f  175/1/1  177/2/1  178/3/1  176/4/1 
f  179/1/1  180/2/1  181/3/1  182/4/1 
f  180/1/1  183/2/1  184/3/1  181/4/1 
f  183/1/1  185/2/1  186/3/1  184/4/1 
f  187/1/1  188/2/1  189/3/1  190/4/1 
f  188/1/1  191/2/1  192/3/1  189/4/1 
f  191/1/1  193/2/1  194/3/1  192/4/1 
f  195/1/1  196/2/1  197/3/1  198/4/1 
f  196/1/1  199/2/1  200/3/1  197/4/1 
f  199/1/1  201/2/1  202/3/1  200/4/1 
f  203/1/1  204/2/1  205/3/1  206/4/1 
f  204/1/1  207/2/1  208/3/1  205/4/1 
f  207/1/1  209/2/1  210/3/1  208/4/1 
f  211/1/1  212/2/1  213/3/1  214/4/1 
f  212/1/1  215/2/1  216/3/1  213/4/1 
f  215/1/1  217/2/1  218/3/1  216/4/1 
f  219/1/1  220/2/1  221/3/1  222/4/1 
f  220/1/1  223/2/1  224/3/1  221/4/1 
f  223/1/1  225/2/1  226/3/1  224/4/1 
f  227/1/1  228/2/1  229/3/1  230/4/1 
f  228/1/1  231/2/1  232/3/1  229/4/1 
f  231/1/1  233/2/1  234/3/1  232/4/1 
f  235/1/1  236/2/1  237/3/1  238/4/1 
f  236/1/1  239/2/1  240/3/1  237/4/1 
f  239/1/1  241/2/1  242/3/1  240/4/1 
f  243/1/1  244/2/1  245/3/1  246/4/1 
f  244/1/1  247/2/1  248/3/1  245/4/1 
f  247/1/1  249/2/1  250/3/1  248/4/1 
f  251/1/1  252/2/1  253/3/1  254/4/1 
f  252/1/1  255/2/1  256/3/1  253/4/1 
f  255/1/1  257/2/1  258/3/1  256/4/1 
f  259/5/1  260/6/1  261/7/1  262/8/1 
f  263/5/1  264/6/1  265/7/1  266/8/1 
f  267/5/1  268/6/1  269/7/1  270/8/1 
f  271/5/1  272/6/1  273/7/1  274/8/1 
f  275/5/1  276/6/1  277/7/1  278/8/1 
f  279/5/1  280/6/1  281/7/1  282/8/1 
f  283/5/1  284/6/1  285/7/1  286/8/1 
